<svg width="160" height="112" viewBox="0 0 160 112" fill="none" xmlns="http://www.w3.org/2000/svg" role="img" aria-label="Candy English candy">
  <path d="M30 45L7 18C5 15 8 11 12 13L48 31L30 45Z" fill="#7C3AED"/>
  <path d="M130 67L153 94C155 97 152 101 148 99L112 81L130 67Z" fill="#7C3AED"/>
  <rect x="38" y="14" width="84" height="84" rx="34" transform="rotate(-12 38 14)" fill="#C084FC"/>
  <rect x="49" y="25" width="62" height="62" rx="28" transform="rotate(-12 49 25)" fill="#F9A8D4"/>
  <path d="M50 26L27 43L38 61L62 43L50 26Z" fill="#A855F7"/>
  <path d="M110 68L133 69L122 51L98 50L110 68Z" fill="#A855F7"/>
  <circle cx="71" cy="51" r="8" fill="#FFF7ED"/>
  <circle cx="89" cy="47" r="6" fill="#FFF7ED"/>
  <path d="M62 75C75 85 96 82 107 66" stroke="#4C1D95" stroke-width="8" stroke-linecap="round"/>
</svg>
