<svg width="720" height="720" viewBox="0 0 720 720" fill="none" xmlns="http://www.w3.org/2000/svg" role="img" aria-label="Prévia de aula Candy English">
  <rect x="52" y="76" width="616" height="568" rx="28" fill="#FFFFFF" stroke="#E5DDD1" stroke-width="3"/>
  <rect x="92" y="116" width="536" height="84" rx="18" fill="#C13B61"/>
  <circle cx="134" cy="158" r="18" fill="#F8D66D"/>
  <rect x="172" y="143" width="202" height="12" rx="6" fill="#FFFDF8"/>
  <rect x="172" y="166" width="138" height="10" rx="5" fill="#F5D7E1"/>
  <rect x="96" y="232" width="248" height="252" rx="20" fill="#F5F1E8"/>
  <rect x="124" y="260" width="132" height="14" rx="7" fill="#231F20"/>
  <rect x="124" y="296" width="184" height="10" rx="5" fill="#6D6462"/>
  <rect x="124" y="322" width="160" height="10" rx="5" fill="#6D6462"/>
  <rect x="124" y="366" width="82" height="82" rx="18" fill="#1F9D8A"/>
  <path d="M150 405L164 419L187 387" stroke="#FFFDF8" stroke-width="10" stroke-linecap="round" stroke-linejoin="round"/>
  <rect x="376" y="232" width="248" height="252" rx="20" fill="#FFF7D1"/>
  <rect x="404" y="260" width="152" height="14" rx="7" fill="#231F20"/>
  <rect x="404" y="296" width="178" height="10" rx="5" fill="#6D6462"/>
  <rect x="404" y="322" width="138" height="10" rx="5" fill="#6D6462"/>
  <path d="M438 410C438 376.9 464.9 350 498 350C531.1 350 558 376.9 558 410" stroke="#C13B61" stroke-width="18" stroke-linecap="round"/>
  <circle cx="498" cy="340" r="36" fill="#1F9D8A"/>
  <rect x="96" y="516" width="528" height="76" rx="18" fill="#231F20"/>
  <rect x="126" y="544" width="158" height="12" rx="6" fill="#FFFDF8"/>
  <rect x="126" y="568" width="238" height="10" rx="5" fill="#BFB7B2"/>
  <rect x="508" y="538" width="84" height="30" rx="15" fill="#F8D66D"/>
</svg>
