<svg width="96" height="96" viewBox="0 0 96 96" fill="none" xmlns="http://www.w3.org/2000/svg" role="img" aria-label="Candy English">
  <path d="M17 37L6 20C5 18 7 16 9 17L29 26L17 37Z" fill="#7C3AED"/>
  <path d="M79 59L90 76C91 78 89 80 87 79L67 70L79 59Z" fill="#7C3AED"/>
  <rect x="20" y="23" width="56" height="50" rx="22" transform="rotate(-12 20 23)" fill="#C084FC"/>
  <rect x="27" y="30" width="42" height="36" rx="18" transform="rotate(-12 27 30)" fill="#F9A8D4"/>
  <path d="M30 28L19 36L25 47L36 38L30 28Z" fill="#A855F7"/>
  <path d="M66 58L77 60L70 49L59 48L66 58Z" fill="#A855F7"/>
  <circle cx="43" cy="45" r="5" fill="#FFF7ED"/>
  <circle cx="55" cy="43" r="4" fill="#FFF7ED"/>
  <path d="M37 60C45 66 57 64 64 55" stroke="#4C1D95" stroke-width="5" stroke-linecap="round"/>
</svg>
