<svg xmlns="http://www.w3.org/2000/svg" viewBox="0 0 64 64" role="img" aria-label="Candy English">
  <circle cx="32" cy="32" r="30" fill="#fffdf8"/>
  <circle cx="32" cy="32" r="29" fill="none" stroke="#e8ddec" stroke-width="2"/>
  <path d="M8 25.5C4.8 22 5.7 17.7 10.2 16.2C14.3 14.8 18.5 18.6 22.7 25.3V38.7C18.5 45.4 14.3 49.2 10.2 47.8C5.7 46.3 4.8 42 8 38.5C10.2 36.1 10.2 27.9 8 25.5Z" fill="#6f54b8"/>
  <path d="M56 25.5C59.2 22 58.3 17.7 53.8 16.2C49.7 14.8 45.5 18.6 41.3 25.3V38.7C45.5 45.4 49.7 49.2 53.8 47.8C58.3 46.3 59.2 42 56 38.5C53.8 36.1 53.8 27.9 56 25.5Z" fill="#6f54b8"/>
  <path fill="#412a4c" fill-rule="evenodd" d="M34 14C23.2 14 15 22 15 32C15 42 23.2 50 34 50C42.8 50 49.6 44.5 51.5 36.9H42.4C40.9 40 37.8 42 34 42C28.1 42 23.8 37.7 23.8 32C23.8 26.3 28.1 22 34 22C37.8 22 40.9 24 42.4 27.1H51.5C49.6 19.5 42.8 14 34 14Z" clip-rule="evenodd"/>
  <circle cx="34" cy="32" r="6.8" fill="#fffdf8"/>
</svg>
